HIERARCHY
ROOT root
{
	OFFSET 0.000000 0.000000 0.000000
	CHANNELS 6 Xposition Yposition Zposition Zrotation Yrotation Xrotation
	JOINT lhip
	{
		OFFSET 0.058581 -0.082280 -0.017664
		CHANNELS 3 Zrotation Yrotation Xrotation
		JOINT lknee
		{
			OFFSET 0.043451 -0.386469 0.008037
			CHANNELS 3 Zrotation Yrotation Xrotation
			JOINT lankle
			{
				OFFSET -0.014790 -0.426874 -0.037428
				CHANNELS 3 Zrotation Yrotation Xrotation
				JOINT ltoe
				{
					OFFSET 0.041054 -0.060286 0.122042
					CHANNELS 3 Zrotation Yrotation Xrotation
					End Site
					{
						OFFSET 0.000000 0.000000 0.000000
					}
				}
			}
		}
	}
	JOINT rhip
	{
		OFFSET -0.060310 -0.090513 -0.013543
		CHANNELS 3 Zrotation Yrotation Xrotation
		JOINT rknee
		{
			OFFSET -0.043257 -0.383688 -0.004843
			CHANNELS 3 Zrotation Yrotation Xrotation
			JOINT rankle
			{
				OFFSET 0.019056 -0.420046 -0.034562
				CHANNELS 3 Zrotation Yrotation Xrotation
				JOINT rtoe
				{
					OFFSET -0.034840 -0.062106 0.130323
					CHANNELS 3 Zrotation Yrotation Xrotation
					End Site
					{
						OFFSET 0.000000 0.000000 0.000000
					}
				}
			}
		}
	}
	JOINT lowerback
	{
		OFFSET 0.004439 0.124404 -0.038385
		CHANNELS 3 Zrotation Yrotation Xrotation
		JOINT upperback
		{
			OFFSET 0.004488 0.137956 0.026820
			CHANNELS 3 Zrotation Yrotation Xrotation
			JOINT chest
			{
				OFFSET -0.002265 0.056032 0.002855
				CHANNELS 3 Zrotation Yrotation Xrotation
				JOINT lowerneck
				{
					OFFSET -0.013390 0.211636 -0.033468
					CHANNELS 3 Zrotation Yrotation Xrotation
					JOINT upperneck
					{
						OFFSET 0.010113 0.088937 0.050410
						CHANNELS 3 Zrotation Yrotation Xrotation
						End Site
						{
							OFFSET 0.000000 0.000000 0.000000
						}
					}
				}
				JOINT lclavicle
				{
					OFFSET 0.071702 0.114000 -0.018898
					CHANNELS 3 Zrotation Yrotation Xrotation
					JOINT lshoulder
					{
						OFFSET 0.122921 0.045205 -0.019046
						CHANNELS 3 Zrotation Yrotation Xrotation
						JOINT lelbow
						{
							OFFSET 0.255332 -0.015649 -0.022946
							CHANNELS 3 Zrotation Yrotation Xrotation
							JOINT lwrist
							{
								OFFSET 0.265709 0.012698 -0.007375
								CHANNELS 3 Zrotation Yrotation Xrotation
								End Site
								{
									OFFSET 0.000000 0.000000 0.000000
								}
							}
						}
					}
				}
				JOINT rclavicle
				{
					OFFSET -0.082954 0.112472 -0.023707
					CHANNELS 3 Zrotation Yrotation Xrotation
					JOINT rshoulder
					{
						OFFSET -0.113228 0.046853 -0.008472
						CHANNELS 3 Zrotation Yrotation Xrotation
						JOINT relbow
						{
							OFFSET -0.260127 -0.014369 -0.031269
							CHANNELS 3 Zrotation Yrotation Xrotation
							JOINT rwrist
							{
								OFFSET -0.269108 0.006794 -0.006027
								CHANNELS 3 Zrotation Yrotation Xrotation
								End Site
								{
									OFFSET 0.000000 0.000000 0.000000
								}
							}
						}
					}
				}
			}
		}
	}
}
MOTION
Frames: 16
Frame Time: 0.033333
-0.234360 0.655832 1.009831 -12.922860 -0.531167 85.628065 4.325592 -1.187071 -5.013119 -0.330532 2.770166 27.929485 4.091441 16.771590 -14.098110 0.000000 -0.000000 0.000000 1.134364 0.070405 0.959806 1.854807 6.053797 13.905037 2.045747 -1.144903 -13.339786 0.000000 -0.000000 0.000000 -0.044389 2.130873 9.666992 1.997142 -2.499110 1.330074 0.916311 -1.395931 4.452511 2.654295 7.859351 -2.550955 -1.641032 4.982204 6.976335 -26.438829 2.174240 2.799921 -58.973122 -6.785681 9.158331 10.827458 -34.802743 5.091195 -0.029838 -3.918230 -4.954805 29.848377 2.522221 5.478779 56.516983 9.255800 11.964160 -21.964848 25.279210 -10.371265 3.518044 1.837101 -3.821696 
-0.242020 0.651173 1.010820 -12.131693 -0.666417 85.242550 4.496112 -1.952546 -6.409035 -1.247930 3.945290 29.872781 2.615639 15.244049 -14.988876 0.000000 -0.000000 0.000000 1.877022 0.651866 2.573780 0.943936 5.327529 12.533291 1.561817 -1.795631 -13.539766 0.000000 -0.000000 0.000000 0.043937 3.482299 9.480239 2.941258 -3.222608 3.725156 0.721774 -0.795144 2.838155 2.296865 7.687258 -1.877451 -1.171867 3.881218 5.972587 -26.631697 0.668391 3.337394 -59.464322 -5.675149 9.480051 11.907861 -35.162236 3.223674 8.116153 -4.063289 -8.711072 30.020496 3.437289 6.054720 59.990807 8.302316 11.755675 -24.062801 23.686821 -10.718605 -0.246619 3.216722 -0.337715 
-0.247144 0.645984 1.011781 -10.475648 -1.292583 84.865022 3.541797 -2.716169 -8.664032 -2.274917 4.286770 31.231763 2.431547 14.271292 -14.367422 0.000000 -0.000000 0.000000 1.616618 -0.350998 4.391011 0.519124 5.058426 10.892709 1.398949 -2.002652 -13.512708 0.000000 -0.000000 0.000000 0.488422 4.394194 10.352226 2.658433 -3.219209 3.270107 0.478959 -0.531244 2.795137 2.485109 6.933069 -1.567622 -0.580919 2.875667 5.779247 -26.543163 0.851512 2.865777 -59.662071 -4.900309 9.792699 11.816401 -35.578189 2.976829 9.163974 -3.749770 -9.220772 30.000871 3.498488 5.946248 62.574211 7.346777 12.113594 -23.274019 22.628791 -10.409412 -2.204348 2.973863 -0.667109 
-0.253438 0.638060 1.012090 -9.051471 -1.467245 84.383966 2.934944 -2.800963 -10.517860 -2.571212 5.004301 31.050772 2.051763 13.307825 -14.155161 0.000000 -0.000000 0.000000 1.689576 -1.177916 6.288157 0.319979 4.623685 9.400660 1.527729 -2.014614 -13.529596 0.000000 -0.000000 0.000000 1.281375 4.832400 11.176727 2.448131 -2.961628 2.792700 0.089214 -0.075208 2.957295 2.801382 6.336923 -1.644196 -0.068914 1.950491 6.160806 -26.045455 1.336200 2.282854 -60.223884 -4.233825 10.359558 11.488554 -35.795818 3.129267 8.642355 -3.947455 -8.915117 29.595529 3.575093 5.594259 63.597009 6.599905 11.915287 -22.461242 22.460712 -10.066842 -2.147662 3.162020 -0.105362 
-0.256292 0.632194 1.011745 -7.843575 -1.563184 84.101877 2.390844 -2.980429 -11.774742 -2.369590 6.147072 29.623560 1.858444 13.257023 -13.693588 0.000000 -0.000000 0.000000 1.665863 -1.741079 8.108981 0.328268 4.270647 7.588949 1.326055 -2.209877 -13.409416 0.000000 -0.000000 0.000000 1.769413 5.377501 11.565314 2.365316 -3.110733 2.616831 0.222256 0.015893 3.121446 2.334121 5.356065 -1.519807 -0.106441 1.787144 5.322637 -26.552256 1.558357 3.083811 -59.901488 -4.106292 9.935575 10.939960 -36.470506 3.859132 9.143227 -4.106393 -9.324884 28.839925 3.733796 5.717032 63.155419 6.414286 12.072100 -21.936551 22.954630 -9.800488 -3.253910 3.499671 -0.622218 
-0.260396 0.624300 1.010850 -6.659804 -1.690192 83.967443 1.666153 -2.843133 -13.456221 -2.056362 7.332754 27.651430 1.727429 13.044444 -13.158886 0.000000 -0.000000 0.000000 1.542933 -2.680295 9.811083 0.369179 4.201157 5.840131 1.259337 -2.227180 -13.517398 0.000000 -0.000000 0.000000 2.226560 5.710123 12.234417 2.099060 -3.040162 1.869979 0.003675 0.276483 3.255381 2.652859 5.026121 -1.885732 0.454838 1.063536 6.043349 -25.959792 1.969737 2.345233 -60.746031 -3.169508 10.492696 10.865894 -35.905508 3.612918 8.645752 -4.258483 -8.945793 28.703115 3.582624 5.361679 62.281370 5.956625 11.073195 -21.982262 23.795048 -10.446951 -4.304005 4.247842 0.289418 
-0.263976 0.614428 1.009211 -5.572092 -1.839915 83.681939 0.864629 -2.956965 -14.731129 -2.020162 8.261153 24.837517 1.496606 12.899020 -12.332716 0.000000 -0.000000 0.000000 1.346640 -3.191458 12.046878 0.513342 4.041934 3.548473 1.175282 -2.503864 -13.217589 0.000000 -0.000000 0.000000 2.423235 6.064938 12.719114 1.921827 -3.229623 1.541041 0.187811 0.281923 3.416854 2.343658 4.253919 -1.912621 0.598824 1.159059 5.397295 -26.215090 2.368675 2.617891 -60.847497 -2.610999 10.293759 10.682833 -35.564813 3.677867 9.591929 -4.179599 -9.606272 27.977438 3.336642 5.102473 60.862244 6.025624 10.927725 -21.595928 24.885468 -11.291811 -5.972620 4.599702 -0.879669 
-0.267763 0.605721 1.006619 -5.188754 -1.714225 83.928635 0.529928 -2.891164 -16.425509 -2.290941 8.839544 21.555400 1.320678 12.576390 -11.295171 0.000000 -0.000000 0.000000 1.338136 -4.055660 13.143559 0.690708 4.386090 2.092431 1.127698 -2.274470 -13.088756 0.000000 -0.000000 0.000000 2.784302 6.805359 12.787810 1.760214 -3.407886 1.306441 0.437360 0.222353 3.464062 1.902583 3.500858 -1.844594 0.653112 1.407100 4.438482 -26.794776 2.715896 2.870509 -60.713287 -2.012253 9.731647 10.327118 -34.892533 4.200844 10.498562 -3.802542 -9.651108 27.171726 3.012679 4.880818 58.934541 6.231424 10.714473 -20.942797 26.347483 -11.204597 -6.966350 4.709222 -2.300645 
-0.271660 0.595372 1.004112 -4.780461 -1.425953 83.988200 0.116570 -2.830841 -17.793419 -2.368406 8.622175 18.569282 1.255863 11.676218 -10.609265 0.000000 -0.000000 0.000000 1.583000 -4.860341 14.380165 0.780289 4.637456 1.057774 0.989291 -2.190005 -13.352075 0.000000 -0.000000 0.000000 3.180848 6.983183 12.958796 1.572013 -3.452732 1.118232 0.318591 0.346908 3.591420 2.039190 3.182860 -2.050903 0.953195 1.524363 4.183553 -26.775518 3.020338 2.592254 -61.013800 -1.379532 9.909919 10.544818 -33.472137 4.020751 10.193516 -3.857418 -9.227687 26.675228 2.868992 4.571120 57.020999 6.442864 10.118954 -20.382504 27.601322 -10.944139 -6.595896 5.321723 -2.297584 
-0.276405 0.581430 1.000250 -4.604780 -1.024952 83.983242 -0.401418 -3.032338 -19.133746 -2.365354 7.909731 14.963610 0.997788 11.093233 -9.659179 0.000000 -0.000000 0.000000 2.056958 -5.229649 15.912202 0.853938 4.951392 0.147526 0.826155 -2.401116 -13.760783 0.000000 -0.000000 0.000000 3.502212 6.992569 13.227014 1.305863 -3.350502 0.940501 0.295839 0.476443 3.703404 2.177010 3.092169 -2.272911 1.290944 1.843331 4.166367 -26.688315 3.077138 2.480801 -61.445954 -0.470137 9.888056 10.943206 -31.685045 3.960866 9.225998 -3.992004 -8.722458 25.828482 3.150760 4.389714 54.772880 6.734111 9.413101 -19.768419 28.681467 -9.792092 -5.536107 5.765602 -2.091521 
-0.280221 0.568334 0.996882 -4.822642 -0.794908 83.917179 -0.810485 -3.006677 -19.961810 -2.426294 7.700836 12.598046 0.839596 10.565442 -9.003074 0.000000 -0.000000 0.000000 2.305968 -5.535251 17.317740 0.751206 5.431507 -0.560031 0.837496 -2.397529 -14.272438 0.000000 -0.000000 0.000000 3.623013 6.986483 13.437476 0.960442 -3.205579 0.812527 0.086865 0.679538 3.805533 2.573147 3.178848 -2.528944 1.769927 2.012455 4.568373 -26.097716 3.208041 2.059349 -62.023290 0.254297 10.143064 11.264073 -30.157407 3.981420 8.081714 -4.149190 -8.064437 25.236352 3.543471 4.085255 53.358680 7.058066 8.826167 -19.055919 28.673669 -8.832122 -4.460037 6.169173 -1.415761 
-0.283713 0.553925 0.992437 -5.368000 -0.648169 84.023953 -1.105417 -3.287936 -20.641845 -2.470367 7.676384 10.278146 0.715440 10.734259 -8.116691 0.000000 -0.000000 0.000000 2.344153 -5.709000 18.455129 0.721291 6.110440 -1.031774 0.973254 -2.369156 -14.588932 0.000000 -0.000000 0.000000 3.621828 7.331545 13.224870 0.647267 -3.252940 0.985148 0.108241 0.882971 3.672685 2.503550 2.872272 -1.994086 1.951260 2.437062 3.958860 -26.181666 2.987838 1.678463 -61.854415 1.336661 9.817562 10.966357 -28.994524 4.744077 7.705613 -4.252458 -7.837450 24.346487 3.793787 4.014334 52.130145 7.496625 8.410791 -18.189629 28.569729 -7.321309 -4.133029 6.099144 -1.535810 
-0.287171 0.538542 0.988608 -6.143644 -0.401065 84.176493 -1.192472 -3.524808 -21.147952 -2.374482 7.991055 8.529967 0.687396 10.934355 -7.674096 0.000000 -0.000000 0.000000 2.555016 -5.680412 19.502370 0.621333 6.780686 -1.272104 0.850480 -2.435021 -15.154449 0.000000 -0.000000 0.000000 3.556146 7.735348 13.075602 0.461831 -3.393625 1.076998 0.285981 0.855931 3.596811 2.175584 2.578207 -1.509522 1.806603 3.142471 3.054490 -26.915486 2.980077 2.578264 -61.147136 1.839514 9.253347 10.738950 -29.185372 5.475383 8.307670 -4.088374 -8.357301 23.406810 4.159348 4.070043 51.294661 8.022529 8.734563 -17.798299 28.472510 -6.572403 -4.627205 5.842368 -2.702630 
-0.290893 0.521585 0.984255 -7.092895 -0.008493 84.197871 -1.084056 -3.267747 -21.400598 -2.295114 8.194926 7.577504 0.607797 10.925279 -7.499093 0.000000 -0.000000 0.000000 2.728844 -5.994069 20.658926 0.453035 7.637589 -1.189708 0.795373 -1.972894 -15.779362 0.000000 -0.000000 0.000000 3.653452 7.863018 13.010007 0.214108 -3.212586 1.123052 0.075643 1.102655 3.459632 2.386860 2.708904 -1.354923 1.914049 3.394456 3.268896 -26.846573 2.970396 2.564330 -61.045527 2.552328 9.132252 10.920914 -29.022246 5.592825 7.463509 -3.823309 -7.963775 23.039680 4.387658 4.043170 50.828021 8.247250 8.234890 -17.784276 28.523157 -6.214189 -4.016680 5.681173 -2.675581 
-0.294387 0.502916 0.979941 -8.325184 0.315785 84.180007 -0.885537 -2.982414 -21.163334 -2.261840 8.147029 6.964516 0.681504 10.988852 -7.510092 0.000000 -0.000000 0.000000 2.613215 -6.146820 21.968604 0.366350 8.708042 -1.046819 0.918172 -1.408173 -16.116060 0.000000 -0.000000 0.000000 3.528726 8.009127 12.800535 0.015794 -3.052426 1.414812 -0.028950 1.336193 3.481910 2.441233 3.009682 -1.487865 1.842682 3.735088 3.023004 -26.574042 3.219662 1.949222 -61.208792 3.066706 9.150289 10.691773 -28.761317 5.782463 7.325162 -3.810056 -7.880429 22.867453 4.552714 3.900267 50.475269 8.520221 8.014497 -17.848858 28.801798 -6.366472 -4.043544 5.843705 -2.181285 
-0.297948 0.482271 0.975649 -9.688715 0.688865 84.175907 -0.447646 -2.595990 -20.735261 -2.358716 8.185846 7.202595 0.730494 11.110260 -7.670241 0.000000 -0.000000 0.000000 2.269772 -6.353637 23.332381 0.463395 9.749918 -0.824281 1.191214 -0.441889 -16.222059 0.000000 -0.000000 0.000000 3.398284 8.156161 12.555469 -0.181690 -2.907294 1.567970 -0.230525 1.602184 3.490470 2.662661 3.621646 -1.865720 1.858244 4.020905 3.298027 -26.211955 3.604990 1.308125 -61.406025 3.460961 9.123916 10.721450 -28.705354 5.722445 6.970859 -3.788463 -7.621487 22.926987 4.388744 3.727935 50.410812 8.711698 7.816515 -17.877544 29.403008 -6.472647 -3.651240 5.901308 -1.790012 
